<?xml version="1.0" encoding="UTF-8" standalone="no"?>
<!-- Created with Inkscape (http://www.inkscape.org/) -->

<svg
   xmlns:dc="http://purl.org/dc/elements/1.1/"
   xmlns:cc="http://creativecommons.org/ns#"
   xmlns:rdf="http://www.w3.org/1999/02/22-rdf-syntax-ns#"
   xmlns:svg="http://www.w3.org/2000/svg"
   xmlns="http://www.w3.org/2000/svg"
   xmlns:sodipodi="http://sodipodi.sourceforge.net/DTD/sodipodi-0.dtd"
   xmlns:inkscape="http://www.inkscape.org/namespaces/inkscape"
   width="210mm"
   height="297mm"
   viewBox="0 0 210 297"
   version="1.1"
   id="svg8"
   inkscape:version="0.92.2 5c3e80d, 2017-08-06"
   sodipodi:docname="agda-logo.svg">
  <defs
     id="defs2" />
  <sodipodi:namedview
     id="base"
     pagecolor="#ffffff"
     bordercolor="#666666"
     borderopacity="1.0"
     inkscape:pageopacity="0.0"
     inkscape:pageshadow="2"
     inkscape:zoom="0.92372159"
     inkscape:cx="333.41002"
     inkscape:cy="559.39793"
     inkscape:document-units="mm"
     inkscape:current-layer="layer2"
     showgrid="false"
     inkscape:window-width="1440"
     inkscape:window-height="856"
     inkscape:window-x="0"
     inkscape:window-y="0"
     inkscape:window-maximized="1" />
  <metadata
     id="metadata5">
    <rdf:RDF>
      <cc:Work
         rdf:about="">
        <dc:format>image/svg+xml</dc:format>
        <dc:type
           rdf:resource="http://purl.org/dc/dcmitype/StillImage" />
        <dc:title></dc:title>
      </cc:Work>
    </rdf:RDF>
  </metadata>
  <g
     inkscape:groupmode="layer"
     id="layer2"
     inkscape:label="Trans Pride Flag">
    <g
       id="g231"
       transform="matrix(0.2273964,-0.07265505,0.0594188,0.18596944,0.18090344,134.33467)">
      <path
         id="path214"
         d="M 0,0 H 800 V 480 H 0 Z"
         inkscape:connector-curvature="0"
         style="fill:#5bcefa" />
      <path
         id="path216"
         d="M 0,96 H 800 V 384 H 0 Z"
         inkscape:connector-curvature="0"
         style="fill:#f5a9b8" />
      <path
         id="path218"
         d="m 0,192 h 800 v 96 H 0 Z"
         inkscape:connector-curvature="0"
         style="fill:#ffffff" />
    </g>
  </g>
  <g
     inkscape:label="Agda Logo"
     inkscape:groupmode="layer"
     id="layer1"
     style="display:inline">
    <path
       style="fill:#000000;stroke-width:0.73141527"
       d="m 36.307138,205.42071 c -0.299553,-0.44688 -1.689724,-3.88598 -3.089276,-7.6424 C 31.81831,194.02188 25.159969,176.7618 18.42155,159.42256 11.683131,142.08336 6.1698798,127.5241 6.1698798,127.06864 c 0,-0.80627 9.6245622,-2.98053 10.3269302,-2.3329 0.19301,0.178 3.833553,9.30168 8.090127,20.27498 4.256575,10.97331 7.83028,20.06267 7.941564,20.19859 0.111299,0.13609 1.927327,-0.28116 4.035644,-0.92684 4.327293,-1.32523 3.768891,-0.0132 5.83911,-13.71808 2.475788,-16.38944 5.546026,-27.65812 9.932309,-36.45446 2.707422,-5.4295 7.3704,-11.32468 8.918443,-11.27519 0.495628,0.0162 2.386092,1.26704 4.20105,2.78043 l 3.299889,2.75162 -1.881709,2.31149 c -8.690347,10.67503 -13.372798,32.39547 -18.103537,83.97681 -0.505818,5.5152 -1.200407,10.18758 -1.543529,10.3831 -1.502089,0.85599 -10.392911,1.16747 -10.919033,0.38252 z m 2.801965,-29.04565 c 0.33644,-2.88804 0.202642,-3.33608 -0.996252,-3.33608 -0.761691,0 -1.567505,0.27238 -1.790702,0.60542 -0.361967,0.54003 1.84315,6.69924 2.237577,6.24985 0.08843,-0.10061 0.335628,-1.68436 0.549377,-3.51919 z m 73.699377,21.198 v -4.02637 l 3.93487,-0.87037 c 5.65867,-1.25169 9.6699,-5.21822 14.37357,-14.21348 6.14408,-11.74974 9.38917,-25.94675 9.42711,-41.24272 0.0261,-10.42054 -0.99754,-16.05142 -3.87006,-21.29338 -1.75499,-3.20262 -1.98487,-3.36042 -4.29077,-2.94531 -5.14708,0.92667 -11.19583,3.33758 -11.24868,4.48349 -0.0293,0.62889 -0.62885,13.39035 -1.33302,28.35876 -0.70411,14.96844 -1.06625,27.21533 -0.80472,27.2153 0.26163,0 1.8992,-0.46313 3.63927,-1.02922 l 3.16377,-1.02924 2.03133,3.81893 c 1.11722,2.1004 1.8789,3.94258 1.69263,4.09374 -0.88884,0.72134 -22.19838,6.88249 -22.58175,6.52902 -0.36254,-0.33428 2.6906,-73.66666 3.07744,-73.91668 2.22749,-1.43961 14.34727,-5.60083 18.64942,-6.40313 7.51107,-1.40076 11.45539,-0.54978 15.4701,3.3377 6.07242,5.87989 9.30582,21.37706 7.65059,36.66794 -3.14064,29.01311 -13.50861,49.1867 -28.03091,54.54155 -1.3088,0.48262 -4.30803,1.11874 -6.66491,1.41365 l -4.28528,0.5362 z m 32.48913,-3.51616 -3.52546,-2.86133 2.24042,-2.58173 c 7.02133,-8.09102 11.86251,-27.43347 15.58773,-62.27985 3.06595,-28.678915 3.38639,-31.40084 3.7346,-31.721937 0.51278,-0.472797 11.17164,-1.187294 11.17164,-0.748857 0,0.21511 1.67583,4.764693 3.72405,10.110034 5.92712,15.46831 23.64268,61.32847 25.2641,65.40109 1.63427,4.10493 1.81417,3.86989 -3.8519,5.03344 -5.4415,1.11743 -5.69979,1.02178 -7.01576,-2.59787 -2.36764,-6.51217 -14.32694,-36.94464 -14.62729,-37.22161 -0.16792,-0.1549 -2.00748,0.27596 -4.08798,0.95733 l -3.7827,1.23873 -1.31564,8.82144 c -3.73505,25.0439 -8.93135,40.7204 -16.01903,48.32755 -1.52964,1.64169 -3.0489,2.98493 -3.37621,2.98493 -0.3273,0 -2.18157,-1.28762 -4.12057,-2.86136 z m 28.87587,-68.28677 c 0.37523,-0.90166 -1.62201,-6.10827 -2.34312,-6.10827 -0.20373,0 -0.37063,1.58026 -0.37063,3.51165 0,2.68524 0.27466,3.51165 1.16645,3.51165 0.64158,0 1.33784,-0.41176 1.5473,-0.91503 z M 72.531694,194.8098 c -3.849335,-0.83797 -6.333718,-2.87106 -8.66382,-7.08999 -3.718165,-6.7322 -5.212276,-13.84996 -5.219373,-24.86461 -0.0132,-19.82232 5.493766,-39.35103 14.658299,-51.98509 5.335701,-7.35568 11.095441,-10.967407 19.433237,-12.185821 2.449436,-0.357957 4.528216,-0.587967 4.619506,-0.511167 0.09148,0.0768 0.390146,1.898308 0.664117,4.047798 l 0.498155,3.90822 -2.949248,0.4977 c -7.063523,1.19203 -12.053302,5.94579 -17.076558,16.26905 -8.19318,16.83762 -11.097743,44.46468 -6.063328,57.67198 2.155441,5.65461 3.141798,6.45218 7.12975,5.76522 5.504074,-0.94814 9.614352,-2.76814 9.977887,-4.41821 0.181906,-0.82579 0.533781,-7.1903 0.781896,-14.14338 0.247967,-6.95307 0.800638,-18.91906 1.227885,-26.5911 0.427251,-7.67201 0.605022,-14.10756 0.395034,-14.30119 -0.209899,-0.19362 -1.89039,0.122 -3.734252,0.70121 l -3.352429,1.05327 -2.057002,-3.86723 c -1.131339,-2.127 -1.955,-3.94444 -1.830341,-4.03881 0.528974,-0.40036 21.636541,-6.68443 22.452361,-6.68443 0.61587,0 0.79141,1.15336 0.56114,3.68725 -0.1842,2.02797 -0.84094,15.85511 -1.45927,30.72693 -0.61832,14.87188 -1.32959,29.93754 -1.58061,33.47929 l -0.4564,6.43954 -6.47488,2.56477 c -5.932065,2.34971 -14.975226,4.63435 -17.766775,4.4885 -0.628409,-0.0329 -2.300144,-0.31177 -3.714981,-0.6197 z"
       id="path75"
       inkscape:connector-curvature="0" />
  </g>
</svg>
