<?xml version="1.0" encoding="UTF-8" standalone="no"?>
<!-- Created with Inkscape (http://www.inkscape.org/) -->

<svg
   xmlns:dc="http://purl.org/dc/elements/1.1/"
   xmlns:cc="http://creativecommons.org/ns#"
   xmlns:rdf="http://www.w3.org/1999/02/22-rdf-syntax-ns#"
   xmlns:svg="http://www.w3.org/2000/svg"
   xmlns="http://www.w3.org/2000/svg"
   xmlns:sodipodi="http://sodipodi.sourceforge.net/DTD/sodipodi-0.dtd"
   xmlns:inkscape="http://www.inkscape.org/namespaces/inkscape"
   width="210mm"
   height="297mm"
   viewBox="0 0 210 297"
   version="1.1"
   id="svg8"
   inkscape:version="0.92.2 5c3e80d, 2017-08-06"
   sodipodi:docname="super-agda-logo.svg"
   inkscape:export-filename="/Users/wen/Projects/plfa-talk/super-agda-logo-2.png"
   inkscape:export-xdpi="96"
   inkscape:export-ydpi="96">
  <defs
     id="defs2" />
  <sodipodi:namedview
     id="base"
     pagecolor="#ffffff"
     bordercolor="#666666"
     borderopacity="1.0"
     inkscape:pageopacity="0.0"
     inkscape:pageshadow="2"
     inkscape:zoom="0.57281846"
     inkscape:cx="295.59668"
     inkscape:cy="421.59954"
     inkscape:document-units="mm"
     inkscape:current-layer="layer5"
     showgrid="false"
     inkscape:window-width="1440"
     inkscape:window-height="856"
     inkscape:window-x="0"
     inkscape:window-y="0"
     inkscape:window-maximized="1" />
  <metadata
     id="metadata5">
    <rdf:RDF>
      <cc:Work
         rdf:about="">
        <dc:format>image/svg+xml</dc:format>
        <dc:type
           rdf:resource="http://purl.org/dc/dcmitype/StillImage" />
        <dc:title />
      </cc:Work>
    </rdf:RDF>
  </metadata>
  <g
     inkscape:groupmode="layer"
     id="layer4"
     inkscape:label="Background Blue"
     style="display:inline">
    <rect
       style="fill:#0000ff;stroke-width:0.26458332"
       id="rect497"
       width="210.16328"
       height="196.76828"
       x="0"
       y="100.23172" />
  </g>
  <g
     inkscape:groupmode="layer"
     id="layer5"
     inkscape:label="Background Red">
    <path
       sodipodi:type="star"
       style="fill:#800000;stroke-width:0.26458332"
       id="path140"
       sodipodi:sides="6"
       sodipodi:cx="101.41663"
       sodipodi:cy="197.27635"
       sodipodi:r1="91.790985"
       sodipodi:r2="79.493332"
       sodipodi:arg1="1.0666304"
       sodipodi:arg2="1.5902291"
       inkscape:flatsided="true"
       inkscape:rounded="0"
       inkscape:randomized="0"
       d="M 145.75878,277.64649 53.985122,275.86284 9.6429797,195.4927 57.074491,116.90621 148.84815,118.68986 193.19029,199.06 Z"
       inkscape:transform-center-y="-1.6971956e-05"
       transform="matrix(1.0894217,-0.01391751,0.01337177,1.07545,-7.9684194,-11.554462)"
       inkscape:transform-center-x="-7.7053762e-06" />
  </g>
  <g
     inkscape:groupmode="layer"
     id="layer2"
     inkscape:label="Red"
     style="display:inline">
    <path
       style="fill:#ff0000;stroke-width:0.46189734"
       d="m 97.558745,269.27071 c -0.0534,-2.12548 -0.117681,-11.03546 -0.142851,-19.79996 -0.02516,-8.7645 -0.0854,-30.32934 -0.133861,-47.92185 l -0.0881,-31.98639 H 74.560964 c -15.293547,0 -22.632969,0.15505 -22.632969,0.47815 0,0.31768 -0.279614,0.3285 -0.83321,0.0322 -0.458264,-0.24525 -1.054121,-0.30453 -1.324129,-0.13172 -0.270007,0.1728 -2.898142,4.49451 -5.840298,9.60379 -8.612233,14.95579 -7.770731,13.72921 -9.692934,14.12858 -0.940014,0.19531 -2.43935,0.20246 -3.331853,0.0159 l -1.622734,-0.3392 8.246718,-14.08787 c 7.733789,-13.21163 18.76843,-31.7454 25.162923,-42.2636 1.544444,-2.54044 3.339732,-5.70332 3.989527,-7.02863 0.922983,-1.88249 1.484596,-2.4805 2.567139,-2.73351 1.574207,-0.36793 31.638326,-0.32426 32.009076,0.0465 0.13279,0.13278 0.31764,23.98525 0.41078,53.00549 0.10615,33.07161 0.33582,52.93053 0.61537,53.21008 0.46614,0.46614 51.66912,0.44397 54.26337,-0.0235 1.24533,-0.2244 1.87444,-1.11454 6.21066,-8.78756 2.65373,-4.69583 5.18628,-8.73124 5.62788,-8.96758 0.85169,-0.45583 4.55882,-0.60249 4.55882,-0.18037 0,0.70087 -10.06069,18.16241 -27.53366,47.78797 l -5.03985,8.5451 -20.08766,0.27581 c -11.04822,0.15171 -20.65926,0.43575 -21.357879,0.63122 l -1.27022,0.35541 z m 42.297835,-4.96664 c 0.424,-0.35213 2.60884,-3.88564 4.8552,-7.85225 2.24636,-3.96661 4.95469,-8.55826 6.01851,-10.20367 1.39459,-2.157 1.89602,-3.38124 1.7973,-4.38803 l -0.13692,-1.39637 -25.30186,-0.11942 c -20.01021,-0.0944 -25.34102,0.002 -25.48909,0.4619 -0.36704,1.1396 -0.65606,20.01466 -0.33425,21.82859 0.31416,1.77075 0.414,1.85993 2.40068,2.14407 1.14009,0.16306 9.57588,0.26698 18.7462,0.23094 13.46007,-0.0529 16.82188,-0.18891 17.44423,-0.70576 z m -44.4684,-100.28829 1.658475,-0.46069 0.304588,-10.46596 c 0.379815,-13.05068 0.388331,-20.64652 0.02421,-21.59538 -0.235609,-0.61399 -1.286306,-0.73702 -6.582037,-0.7707 -3.465898,-0.022 -9.003752,-0.19315 -12.306318,-0.38025 -3.546417,-0.20091 -6.411214,-0.16277 -6.997724,0.0932 -0.546179,0.23834 -1.377595,1.28711 -1.847588,2.33061 -0.469992,1.0435 -4.336084,8.03345 -8.591314,15.53322 -4.255228,7.49977 -7.736779,14.00092 -7.736779,14.447 0,0.75085 0.882801,0.81569 11.893857,0.8736 9.896141,0.0521 23.794097,0.44246 27.598367,0.77528 0.508087,0.0445 1.670108,-0.1265 2.582269,-0.37989 z"
       id="path461"
       inkscape:connector-curvature="0" />
    <path
       style="fill:#ff0000;stroke-width:0.46189734"
       d="m 137.379,199.61142 c -4.52688,-1.14788 -7.10233,-2.28208 -10.68851,-4.70711 -5.10194,-3.45001 -10.62082,-9.87449 -12.13589,-14.12728 -0.34204,-0.9601 -1.15257,-2.73792 -1.80118,-3.95072 -0.64861,-1.2128 -1.63805,-4.19035 -2.19874,-6.61677 -0.87721,-3.79612 -0.98139,-5.22853 -0.74669,-10.26613 0.32569,-6.99026 1.11246,-10.45906 3.55398,-15.66913 2.30326,-4.91503 5.02583,-8.72279 9.10305,-12.73143 5.23942,-5.15128 4.58812,-4.93024 14.53749,-4.93375 4.74678,-0.002 9.14955,-0.20039 9.78394,-0.44158 1.0657,-0.40518 1.25672,-0.25587 2.51152,1.96307 l 1.35809,2.40159 -9.98728,0.25972 c -6.6012,0.17166 -10.34398,0.45355 -11.03936,0.83142 -1.42189,0.77267 -6.15912,6.79838 -8.13445,10.34694 -6.12402,11.00146 -7.47588,24.05764 -3.71666,35.89547 0.95824,3.01752 1.51555,3.90535 4.23199,6.74186 3.43299,3.58474 6.18046,5.13371 13.05922,7.36253 3.30382,1.07049 4.98139,1.30857 10.58382,1.50204 4.29348,0.14827 7.82001,0.0248 9.9308,-0.34759 7.86919,-1.38844 19.67045,-7.23617 19.67045,-9.74705 0,-1.2551 -1.31796,-3.76721 -5.62931,-10.72982 -2.01679,-3.25699 -4.38971,-7.36211 -5.27318,-9.12247 l -1.6063,-3.20067 h -7.82579 -7.82579 l 0.10779,-2.30864 0.10778,-2.30863 7.24482,-8e-4 c 3.98465,-5.3e-4 7.74555,0.18953 8.35755,0.42221 0.76842,0.29216 2.55039,2.8291 5.75882,8.19868 5.46263,9.14219 11.20331,19.14734 11.20085,19.52145 -0.0126,1.91519 -9.04044,9.85247 -13.78061,12.11584 -1.61026,0.76888 -4.72807,2.03281 -6.92846,2.80874 -3.68236,1.29853 -4.57041,1.42295 -11.16012,1.56364 -5.87635,0.12545 -7.78024,-0.005 -10.62364,-0.72558 z"
       id="path473"
       inkscape:connector-curvature="0" />
    <path
       style="fill:#ff0000;stroke-width:0.46189734"
       d="m 63.158253,271.2954 c -1.05347,-1.7148 -3.000171,-5.30027 -4.326006,-7.96773 -1.325833,-2.66746 -7.266972,-13.32547 -13.202531,-23.68447 -5.935557,-10.35901 -10.794164,-18.98494 -10.796905,-19.16874 -0.0028,-0.18381 -0.913591,-1.63503 -2.024108,-3.22493 -2.38915,-3.4205 -3.350704,-5.54169 -2.772039,-6.11515 0.496644,-0.49218 13.926103,-8.30619 21.660381,-12.60323 3.048524,-1.69371 6.166329,-3.20142 6.928461,-3.35047 1.18051,-0.23087 3.26652,0.79993 14.087869,6.9615 6.986196,3.97787 13.013958,7.53147 13.395024,7.89689 0.593201,0.56884 0.726061,4.2327 0.923795,25.47533 0.127021,13.64601 0.334875,25.10588 0.461896,25.46635 0.162399,0.46088 -3.059525,2.54577 -10.854589,7.02396 -6.097045,3.5027 -11.193608,6.37753 -11.325693,6.38852 -0.132088,0.011 -1.102088,-1.38304 -2.155555,-3.09783 z m 9.299022,-6.88708 c 8.85382,-4.89197 10.345449,-5.99877 10.711068,-7.94768 0.557583,-2.97217 -0.256219,-42.25312 -0.888362,-42.87985 -0.719966,-0.71379 -22.90835,-13.53306 -23.423864,-13.53306 -0.56026,0 -21.495723,12.08046 -22.647841,13.06856 l -0.965769,0.82828 1.720909,3.09785 c 0.946502,1.70382 4.045378,7.04707 6.886395,11.8739 7.188591,12.21327 20.059848,34.7424 20.538826,35.95002 0.21853,0.55097 0.51164,1.36551 0.651356,1.81009 0.414396,1.31859 1.559645,0.96839 7.417282,-2.26811 z"
       id="path471"
       inkscape:connector-curvature="0" />
    <path
       style="fill:#ff0000;stroke-width:0.46189734"
       d="M 52.010608,283.53568 C 50.751726,281.43981 47.020339,275.04833 43.718641,269.33234 40.41694,263.61636 31.014635,247.40376 22.824629,233.30434 6.5336487,205.25879 3.8906687,200.54306 3.8906687,199.52155 c 0,-0.37467 4.5990036,-8.67173 10.2200093,-18.43793 18.789587,-32.64592 37.464778,-64.81502 38.918714,-67.03975 l 1.439037,-2.20193 50.456491,-0.008 50.45649,-0.008 1.08874,1.73212 c 0.5988,0.95266 5.3547,9.11092 10.56867,18.12947 22.01306,38.07574 36.76532,63.65764 37.93157,65.7771 l 1.247,2.26623 -2.61784,4.66223 c -3.80471,6.77601 -18.24071,31.80823 -33.27732,57.70333 -7.20368,12.40572 -13.41113,23.16214 -13.79433,23.90318 l -0.69673,1.34731 H 105.06533 54.299487 Z m 100.710542,-2.07854 c 0.95336,-1.09368 11.84001,-19.84146 36.27665,-62.47162 2.4028,-4.19171 4.63025,-7.93308 4.94991,-8.31415 0.31966,-0.38106 1.87325,-3.02864 3.45242,-5.88349 l 2.87123,-5.19065 -1.49093,-2.6616 c -0.82001,-1.46389 -2.47571,-4.32444 -3.67934,-6.35679 -1.20363,-2.03235 -10.86853,-18.76458 -21.47756,-37.18274 -10.60904,-18.41816 -19.78903,-34.16308 -20.39999,-34.98872 l -1.11083,-1.50117 H 104.5936 57.074492 l -2.064964,3.34876 c -3.06987,4.97842 -43.670678,75.49196 -44.769058,77.75275 l -0.944856,1.9448 1.462935,2.37757 c 0.804614,1.30766 10.836745,18.63292 22.293624,38.50056 11.456879,19.86765 21.54909,37.31814 22.427133,38.77891 l 1.596446,2.65591 h 47.470398 c 44.63354,0 47.5125,-0.0483 48.175,-0.80833 z"
       id="path469"
       inkscape:connector-curvature="0" />
    <path
       style="fill:#800000;stroke-width:0.46189734"
       d="m 64.050539,276.39066 c -1.226188,-0.22494 -2.161707,-1.62864 -7.320838,-10.98445 -2.241423,-4.0647 -8.791795,-15.80844 -14.556386,-26.0972 -11.92698,-21.28753 -15.233967,-27.46375 -15.233967,-28.45138 0,-0.62444 4.272267,-8.18572 6.016652,-10.64858 0.386992,-0.54639 1.477951,-1.4503 2.424355,-2.00869 2.810555,-1.65827 2.202458,-1.97075 -3.475611,-1.78596 l -5.196345,0.1691 -0.884666,-2.54043 c -0.490531,-1.40863 -0.902099,-3.87803 -0.923795,-5.54277 -0.04461,-3.42312 -1.17131,-1.30929 20.410944,-38.29359 14.085038,-24.13673 12.747305,-22.29986 17.588883,-24.15168 l 3.993703,-1.52751 18.360419,-0.13067 c 10.098233,-0.0719 18.377963,-0.0719 18.399403,0 0.0214,0.0719 0.20906,22.61795 0.41693,50.10241 0.20787,27.48445 0.51438,50.19248 0.68113,50.46228 0.20742,0.33563 7.6519,0.49055 23.57224,0.49055 h 23.26907 l 2.83605,-4.23995 c 3.04621,-4.55413 5.74566,-9.56236 5.3613,-9.94671 -0.12994,-0.12994 -1.33871,0.0459 -2.68615,0.39073 -3.82177,0.97809 -16.8923,0.84436 -20.69484,-0.21174 -5.65313,-1.57007 -10.22249,-4.14661 -14.44915,-8.1475 -6.33674,-5.99825 -10.39767,-12.64943 -13.12341,-21.49413 -1.26182,-4.09444 -1.28102,-4.33805 -1.2741,-16.16641 0.008,-13.49852 0.23634,-14.94509 3.44505,-21.81424 3.13148,-6.70383 9.14363,-14.19348 14.77797,-18.40969 l 1.61664,-1.20974 9.93079,0.3021 c 5.46194,0.16615 10.54915,0.34316 11.30491,0.39335 1.15446,0.0767 1.65323,0.55274 3.12023,2.97829 l 1.74612,2.88704 -2.42739,3.66623 c -1.33506,2.01642 -2.84309,3.78026 -3.35118,3.91964 -0.50808,0.13937 -5.43403,0.25625 -10.94655,0.25972 l -10.02276,0.006 -1.12787,1.50117 c -1.49102,1.98451 -4.03312,7.13331 -5.64427,11.43196 -1.25393,3.34559 -1.29882,3.76479 -1.31076,12.24028 l -0.0124,8.77605 1.62238,5.08087 1.62238,5.08087 2.80305,1.89474 c 3.11598,2.10626 8.28955,4.39061 12.71576,5.61455 2.23332,0.61756 4.57674,0.79451 10.07007,0.76037 7.92183,-0.0492 11.94047,-0.83422 17.43662,-3.40604 2.83414,-1.32618 3.40327,-1.94951 2.36557,-2.59084 -0.28671,-0.1772 -1.30536,-2.01929 -2.26366,-4.09352 -2.04768,-4.43218 -5.66126,-10.67513 -7.03371,-12.15165 -0.83728,-0.90078 -1.43231,-1.03959 -4.46519,-1.04166 -1.92456,-0.001 -5.52577,-0.13659 -8.0027,-0.30062 l -4.50349,-0.29822 v -3.86094 c 0,-3.76561 0.0485,-3.93473 1.96306,-6.84919 l 1.96306,-2.98824 7.15941,0.0141 c 9.39694,0.0185 13.19871,0.44543 14.02457,1.57486 0.89394,1.22254 13.86432,24.48641 15.13698,27.14992 0.96291,2.01524 1.00184,2.38172 0.46591,4.38552 -0.7614,2.8468 -5.51598,15.28923 -6.34407,16.60203 -0.3523,0.55851 -2.61714,2.11742 -5.03299,3.46423 -2.41585,1.34681 -4.39268,2.58104 -4.39297,2.74273 -2.6e-4,0.16168 0.9868,0.43654 2.19351,0.6108 1.97666,0.28543 5.82553,1.79988 7.42936,2.92328 0.49386,0.34593 0.32137,1.01836 -0.86768,3.38271 -3.66907,7.29576 -11.32085,20.97193 -17.54451,31.35766 -5.32393,8.8843 -14.64034,25.17641 -15.34427,26.83335 -0.0641,0.15084 -10.50921,0.506 -23.21138,0.78923 l -23.09487,0.51501 -2.868946,-2.83669 -2.868948,-2.83669 -0.133385,-3.32776 -0.133384,-3.32777 -7.390358,4.39323 c -12.914039,7.67679 -15.710627,9.00129 -18.085543,8.56558 z m 6.021398,-4.37171 c 8.556675,-4.86405 16.300939,-9.56915 16.861115,-10.24411 0.64048,-0.77174 0.678138,-12.14987 0.123788,-37.39755 -0.260644,-11.87073 -0.426969,-14.30983 -1.000059,-14.66556 -9.236241,-5.73303 -25.748371,-14.74487 -27.01659,-14.74487 -1.071507,0 -7.121401,3.14698 -17.485262,9.09533 -10.894777,6.25307 -11.844197,6.88553 -11.844197,7.89007 0,0.41585 1.111339,2.53219 2.469641,4.703 3.196932,5.10924 21.725451,37.89875 26.564183,47.01005 4.153447,7.82091 5.965624,10.7479 6.65431,10.7479 0.253648,0 2.356527,-1.07742 4.673071,-2.39426 z m 51.658043,0.30262 18.80853,-0.32575 1.00023,-1.67817 c 12.98272,-21.78207 31.36017,-53.70332 31.36017,-54.47195 0,-0.35777 -0.81376,-0.55535 -2.2873,-0.55535 -2.17347,0 -2.35378,0.0977 -3.62312,1.96306 -0.7347,1.07968 -3.03279,4.90095 -5.10687,8.49171 -2.07407,3.59075 -4.11302,6.81245 -4.53098,7.15932 -0.62303,0.51708 -5.60789,0.63071 -27.67122,0.63077 -14.80121,4e-5 -27.04412,-0.13261 -27.20648,-0.2948 -0.16236,-0.16218 -0.43964,-23.99617 -0.61618,-52.96442 -0.17655,-28.96825 -0.49418,-52.84268 -0.70586,-53.05427 -0.21167,-0.21159 -7.516593,-0.38472 -16.233153,-0.38472 -17.858155,0 -16.854424,-0.19698 -18.828908,3.69518 -0.515504,1.01618 -5.340522,9.2264 -10.722269,18.24495 -17.267923,28.937 -26.239451,44.37439 -25.954201,44.65964 0.700082,0.70009 4.9379,0.69907 6.007007,-0.001 0.607584,-0.3981 3.558918,-4.94504 6.558523,-10.10431 7.12455,-12.25411 7.785241,-13.21376 9.084625,-13.19547 0.577625,0.008 11.183101,-0.15113 23.567726,-0.35393 l 22.517494,-0.36873 0.0042,49.6133 c 0.0024,27.28732 0.130617,50.66678 0.285353,51.95437 l 0.281337,2.34107 2.601506,-0.33715 c 1.43083,-0.18543 11.06534,-0.48374 21.41004,-0.66291 z M 89.757386,188.9989 v -16.59161 l -1.270216,-0.23944 c -0.69862,-0.1317 -9.365843,-0.3041 -19.260497,-0.38313 l -17.990278,-0.14368 -4.108741,7.15942 c -7.441126,12.96602 -9.696902,17.11193 -9.446694,17.36214 0.286385,0.28638 6.587504,-2.83912 15.817485,-7.84584 3.556609,-1.92926 6.809311,-3.50861 7.228226,-3.50969 0.418915,-7.9e-4 2.767367,1.29714 5.218785,2.88491 13.948237,9.03421 21.800793,14.31132 22.310764,14.99339 0.317556,0.42471 0.577371,1.25212 0.577371,1.83867 0,0.58655 0.207854,1.06646 0.461899,1.06646 0.29936,0 0.461896,-5.83846 0.461896,-16.5916 z m 65.144174,11.08646 c 3.66999,-0.60125 10.79215,-3.51437 14.38707,-5.88464 3.96477,-2.61413 10.0032,-8.24853 10.35892,-9.66581 0.32377,-1.29001 -0.68652,-3.22653 -8.7513,-16.77439 -3.08522,-5.18281 -6.16262,-10.01541 -6.83866,-10.73911 l -1.22916,-1.31582 h -7.89789 -7.89788 v 2.30948 2.30949 h 7.76021 7.76022 l 1.05443,2.19401 c 0.57994,1.20671 3.1199,5.66046 5.64435,9.89723 2.52446,4.23677 4.90763,8.46359 5.29593,9.39294 l 0.70601,1.68972 -1.67815,1.58271 c -1.9041,1.79579 -7.4571,4.59465 -12.91703,6.51052 -3.57516,1.25452 -3.99524,1.29663 -12.93313,1.29663 -8.95496,0 -9.35821,-0.0406 -13.16407,-1.32716 -5.789,-1.95686 -9.04224,-3.84328 -12.29766,-7.1309 -3.24027,-3.2723 -4.25191,-5.40991 -5.51844,-11.66053 -1.15984,-5.72405 -0.73249,-15.42116 0.92379,-20.9618 1.65977,-5.55229 4.70616,-11.30257 8.46987,-15.98744 2.47518,-3.08098 3.43047,-3.93663 4.67639,-4.18858 0.86117,-0.17415 5.69377,-0.46736 10.73911,-0.65159 5.04534,-0.18423 9.17335,-0.47562 9.17335,-0.64754 0,-0.91466 -2.88077,-4.70738 -3.4187,-4.50096 -0.3373,0.12944 -4.74654,0.38319 -9.7983,0.56389 -5.05176,0.18071 -9.60073,0.53812 -10.10882,0.79426 -1.7969,0.90584 -5.65233,4.4768 -8.18891,7.58468 -6.76754,8.29176 -9.54332,16.17688 -9.57802,27.20814 -0.0197,6.24802 0.91508,10.26657 3.99096,17.15754 4.62832,10.36897 12.84061,17.71505 22.7888,20.38505 3.83722,1.02989 13.78006,1.33106 18.48671,0.55998 z"
       id="path486"
       inkscape:connector-curvature="0" />
    <path
       style="fill:#800000;stroke-width:0.46189734"
       d="m 69.433905,163.55064 c -8.256416,-0.18037 -15.167554,-0.35646 -15.358089,-0.39132 -0.190532,-0.0349 -0.345837,-0.32319 -0.34512,-0.64075 0.0021,-0.93759 15.933505,-29.56059 17.220229,-30.93858 l 1.178116,-1.26168 9.622493,0.24047 c 5.29237,0.13225 10.906636,0.35121 12.476144,0.48656 l 2.85365,0.2461 0.272622,2.85365 c 0.348009,3.6428 -0.384744,28.82102 -0.852432,29.29049 -0.472345,0.47413 -8.976516,0.51029 -27.067613,0.11506 z m 20.495847,-2.78195 c 0.340339,-0.34121 -0.441688,-23.03849 -0.806347,-23.40315 -0.160798,-0.1608 -4.138417,-0.38873 -8.839155,-0.50651 l -8.546793,-0.21416 -1.4982,1.60012 c -1.240026,1.32438 -13.276583,21.48994 -13.276583,22.24305 0,0.12879 0.467672,0.33051 1.03927,0.44826 1.443162,0.29729 31.622116,0.13886 31.927808,-0.16761 z"
       id="path488"
       inkscape:connector-curvature="0" />
    <path
       style="fill:#800000;stroke-width:0.46189734"
       d="m 64.911239,265.71489 c -0.553649,-1.5882 -6.161646,-11.51808 -19.783705,-35.03029 -5.176676,-8.93515 -9.412137,-16.43669 -9.412137,-16.6701 0,-0.40228 8.952405,-5.8425 18.430497,-11.19988 3.737692,-2.11268 4.509809,-2.39145 5.542766,-2.00117 1.537537,0.58092 20.490723,11.51013 21.75152,12.54284 0.917694,0.75169 0.968698,1.45886 1.438746,19.94805 0.268031,10.54281 0.353386,20.24468 0.189675,21.55971 -0.212511,1.70704 -0.645562,2.73887 -1.51393,3.60723 -1.546503,1.54651 -12.943615,8.0002 -14.775082,8.36649 -1.225389,0.24508 -1.435494,0.11881 -1.86835,-1.12288 z m 10.065433,-11.28602 5.311819,-2.87958 0.120875,-17.87452 0.120878,-17.87452 -1.619586,-1.29422 c -2.200952,-1.7588 -16.669231,-9.73233 -18.863006,-10.39549 -1.614138,-0.48794 -2.017818,-0.40883 -4.724407,0.92585 -3.767844,1.85801 -10.96912,6.30398 -11.766016,7.26418 -0.797004,0.96033 -0.76871,1.0169 10.685724,21.36297 13.345298,23.70475 13.32103,23.66566 14.685166,23.65219 0.405204,-0.004 3.127053,-1.30309 6.048553,-2.88686 z"
       id="path490"
       inkscape:connector-curvature="0" />
    <path
       style="fill:#800000;stroke-width:0.46189734"
       d="m 102.62244,264.41424 c -0.4185,-0.11674 -0.88334,-0.66879 -1.03296,-1.22678 -0.36492,-1.36089 -0.35301,-15.46393 0.0164,-19.37495 l 0.29445,-3.11781 h 25.10662 25.10661 v 1.39125 c 0,0.94612 -1.73648,4.335 -5.42729,10.59182 -2.98502,5.06031 -5.86526,9.78649 -6.40055,10.50261 l -0.97324,1.30203 -17.96455,0.072 c -9.8805,0.0396 -18.30695,-0.0235 -18.72546,-0.14021 z m 29.72433,-8.44309 c 2.19845,-2.5684 8.89263,-12.44762 8.61956,-12.72069 -0.46009,-0.46009 -22.56468,-0.82909 -29.61524,-0.49438 l -7.27489,0.34537 v 7.07865 c 0,6.97358 0.0154,7.08162 1.03927,7.27883 0.5716,0.11009 6.58317,0.22847 13.35903,0.26307 l 12.31977,0.0629 z"
       id="path492"
       inkscape:connector-curvature="0" />
    <path
       style="fill:#800000;stroke-width:0.46189734"
       d="M 33.40591,241.12247 C 20.322668,218.44184 9.6806203,199.68235 9.7569172,199.43471 10.009788,198.61396 43.784387,139.78105 54.014512,122.34119 l 3.179112,-5.41961 47.442866,-0.008 47.44288,-0.008 3.63883,6.12014 c 7.88661,13.26444 43.64021,75.34535 43.84594,76.13209 0.21486,0.82161 -2.21405,5.65394 -5.28127,10.50714 -0.85456,1.35215 -8.64006,14.75872 -17.30113,29.79238 -19.54123,33.91918 -23.83046,41.21412 -24.61627,41.86629 -0.44159,0.36647 -14.20184,0.58912 -47.89572,0.77496 l -47.276126,0.26078 z m 113.99289,38.52982 3.83037,-0.29819 3.84416,-6.51204 c 11.31797,-19.17282 40.9197,-70.74117 41.52499,-72.33956 0.36013,-0.95098 0.12498,-1.78936 -1.29552,-4.61897 -0.95453,-1.90141 -2.66506,-4.89835 -3.80119,-6.65986 -1.13612,-1.76152 -9.60624,-16.41522 -18.82248,-32.56377 -9.21624,-16.14855 -17.76967,-31.07068 -19.00763,-33.1603 l -2.25082,-3.7993 -46.65163,0.005 -46.651631,0.005 -9.212585,16.03411 c -5.066924,8.81876 -13.03878,22.68544 -17.71524,30.81483 -15.843744,27.5422 -18.642226,32.67128 -18.385,33.69615 0.41389,1.64907 40.209251,70.84368 43.765918,76.09847 0.980704,1.44894 2.145659,2.84562 2.588794,3.10375 0.900861,0.52478 81.707624,0.70218 88.239494,0.19376 z"
       id="path494"
       inkscape:connector-curvature="0" />
  </g>
  <g
     inkscape:groupmode="layer"
     id="layer3"
     inkscape:label="Yellow"
     style="display:inline">
    <path
       style="fill:#ffff00;stroke-width:0.46189734"
       d="M 59.782254,279.56027 C 58.199437,279.26899 57.877873,278.7625 43.464829,253.85877 19.304906,212.11382 12.66665,200.42702 12.668024,199.64029 c 7.14e-4,-0.41101 10.266241,-18.5188 22.812275,-40.23952 l 22.810973,-39.49223 46.412548,-0.11767 46.41256,-0.11768 4.60716,7.73898 c 2.53394,4.25644 5.39749,9.19396 6.36345,10.97227 0.96596,1.7783 6.88631,12.17099 13.15634,23.09486 6.27002,10.92388 12.19924,21.31657 13.17603,23.09487 0.97679,1.77831 2.3398,3.96077 3.02892,4.84992 0.68912,0.88916 2.22954,3.53248 3.42315,5.87405 l 2.17021,4.2574 -1.55938,2.90201 c -2.64023,4.91347 -41.28999,71.85123 -44.21408,76.57463 -0.37601,0.60738 -5.94463,0.70102 -45.1501,0.75904 -24.596654,0.0364 -45.447778,-0.0675 -46.335826,-0.23095 z m 8.90792,-3.8267 c 3.330374,-1.69396 19.450606,-11.10542 20.367114,-11.89091 0.844034,-0.72338 0.863653,-0.63865 0.648759,2.80238 l -0.221599,3.54833 2.881934,2.85632 2.881934,2.85631 18.640384,-0.37251 c 10.25221,-0.20486 18.79627,-0.41084 18.9868,-0.4577 0.19054,-0.0469 2.31619,-0.1112 4.72367,-0.14295 l 4.37724,-0.0577 0.84695,-1.73211 c 2.8843,-5.89874 14.49685,-25.95203 18.12161,-31.29355 1.0889,-1.6046 6.76986,-11.9158 13.23311,-24.01866 1.08533,-2.03235 1.9794,-4.02815 1.98681,-4.43512 0.0194,-1.06724 -5.79725,-3.64808 -8.22203,-3.64808 -1.05942,0 -1.92368,-0.15589 -1.92056,-0.34643 0.003,-0.19053 2.00253,-1.3789 4.44315,-2.64082 2.44062,-1.26192 4.71111,-2.7169 5.04552,-3.23328 0.3344,-0.51638 2.09062,-4.86909 3.90269,-9.67268 2.3916,-6.33987 3.21278,-9.06189 2.99592,-9.93079 -0.16433,-0.65835 -2.95301,-5.87371 -6.19708,-11.58969 -3.24406,-5.71598 -6.75488,-11.96551 -7.80182,-13.88785 -1.04693,-1.92234 -2.2737,-3.82859 -2.72615,-4.23612 -0.69066,-0.62208 -2.41589,-0.76203 -10.75343,-0.87233 l -9.93079,-0.13137 -2.17887,3.21275 -2.17887,3.21275 0.10034,3.92612 0.10032,3.92613 8.15802,0.23095 8.15803,0.23095 1.07992,1.34883 c 1.78059,2.22397 5.41527,8.63824 6.43342,11.35334 0.52397,1.39724 1.45056,3.19441 2.0591,3.9937 l 1.10644,1.45326 -2.57095,1.21729 c -8.96128,4.24297 -21.06836,5.06471 -30.273,2.05473 -6.17133,-2.01807 -13.31972,-6.18206 -13.31972,-7.75883 0,-0.49917 -0.66905,-2.84206 -1.48678,-5.20642 -1.45423,-4.20474 -1.48676,-4.47574 -1.48588,-12.38203 8e-4,-7.62875 0.0741,-8.30394 1.30318,-12.00933 1.32057,-3.98124 4.18382,-9.90313 5.80654,-12.00933 l 0.88967,-1.15475 10.89919,-0.14634 10.89918,-0.14635 2.56685,-3.8571 2.56686,-3.8571 -1.72152,-3.07837 c -1.84012,-3.29044 -2.59311,-3.90314 -3.68407,-2.99772 -0.47694,0.39582 -0.68697,0.41169 -0.68697,0.0519 0,-0.36805 -2.96808,-0.51271 -10.24165,-0.49913 l -10.24165,0.0191 -2.1141,1.55481 c -5.56717,4.09438 -11.61854,11.76531 -14.35594,18.19811 -3.02455,7.1076 -3.40474,9.44141 -3.43503,21.08635 -0.0264,10.14212 0.0306,10.85393 1.25755,15.70451 2.26078,8.93778 7.08314,16.96275 13.98231,23.2682 5.79359,5.29502 13.18451,8.16158 22.41683,8.69437 3.97282,0.22926 11.0949,-0.52876 14.42122,-1.5349 0.70247,-0.21248 0.6015,0.21177 -0.63639,2.67389 -1.71821,3.41746 -5.1936,8.94096 -6.56399,10.43227 l -0.95501,1.03927 h -23.2453 c -18.28568,0 -23.24635,-0.12319 -23.25021,-0.57737 -0.003,-0.31756 -0.11843,-22.60988 -0.25718,-49.5385 -0.13874,-26.9286 -0.34835,-49.42878 -0.46579,-50.00037 l -0.21351,-1.03927 H 85.754317 67.865738 l -4.266674,1.42144 c -2.346668,0.7818 -4.672827,1.7691 -5.169233,2.19401 -0.496408,0.42492 -6.86105,11.06134 -14.143654,23.63649 -7.282603,12.57516 -14.778053,25.50906 -16.65656,28.74201 -1.878505,3.23296 -3.415464,6.42006 -3.415464,7.08246 0,1.49567 1.782974,8.57605 2.323687,9.2276 0.265208,0.31958 1.974575,0.35281 5.136298,0.0999 6.144601,-0.49161 6.68319,-0.33359 3.856501,1.13143 -2.094638,1.08561 -2.580423,1.67298 -5.221862,6.3139 -1.601806,2.81431 -3.108745,5.23829 -3.348757,5.38663 -1.283575,0.79329 -0.486238,2.3316 20.461417,39.47645 3.939834,6.9862 8.723415,15.61213 10.630186,19.16874 1.906767,3.55661 3.899738,6.93424 4.428823,7.50584 1.244581,1.34459 3.62698,1.36382 6.209728,0.0501 z"
       id="path455"
       inkscape:connector-curvature="0" />
    <path
       style="fill:#ffff00;stroke-width:0.46189734"
       d="m 89.206897,205.58652 c -0.201152,-1.39942 -0.512932,-2.77318 -0.692846,-3.05277 -0.394732,-0.61345 -11.849481,-8.24156 -20.297981,-13.51712 -3.362669,-2.09978 -6.232927,-4.0103 -6.378347,-4.2456 -0.466294,-0.75447 -1.354151,-0.47211 -5.326142,1.69383 -13.12074,7.1548 -18.522307,9.95986 -18.746843,9.73532 -0.281466,-0.28146 0.310827,-1.36783 8.227232,-15.09024 l 5.462569,-9.4689 18.912721,0.2386 c 10.401995,0.13122 19.033029,0.35889 19.180074,0.50594 0.147045,0.14705 0.212894,8.24991 0.146325,18.00636 -0.07537,11.04714 -0.259001,16.77914 -0.486762,15.19458 z"
       id="path451"
       inkscape:connector-curvature="0" />
    <path
       style="fill:#ffff00;stroke-width:0.46189734"
       d="m 67.284144,256.05279 c -1.222772,-1.77881 -5.526011,-9.26945 -12.00717,-20.90086 -3.043457,-5.46194 -7.024423,-12.52791 -8.846595,-15.70215 -1.822172,-3.17425 -3.25329,-6.15023 -3.180262,-6.61328 0.142433,-0.90315 12.543827,-8.35356 14.755301,-8.86458 1.429039,-0.33021 4.315431,1.02336 15.017044,7.04227 4.814218,2.70766 7.088571,4.24613 7.268575,4.91676 0.144089,0.53682 0.264816,8.6814 0.268285,18.09907 l 0.0063,17.12303 -3.810654,2.11542 c -4.884462,2.71154 -7.583622,4.05453 -8.148822,4.05453 -0.246867,0 -0.84177,-0.57159 -1.32201,-1.27021 z"
       id="path453"
       inkscape:connector-curvature="0" />
    <path
       style="fill:#ffff00;stroke-width:0.46189734"
       d="m 107.47115,257.44194 -3.34876,-0.15941 v -7.06841 -7.06841 l 9.35343,-0.25633 c 5.14438,-0.14098 13.45883,-0.12086 18.47656,0.0447 l 9.12314,0.30104 -4.7011,7.01137 c -2.86954,4.27972 -5.07426,7.11157 -5.65891,7.26858 -0.98216,0.26375 -17.24192,0.21259 -23.24436,-0.0731 z"
       id="path457"
       inkscape:connector-curvature="0" />
    <path
       style="fill:#ffff00;stroke-width:0.46189734"
       d="m 59.403728,160.92189 c -1.350282,-0.10219 -2.38955,-0.34219 -2.309487,-0.53333 0.08007,-0.19115 3.114249,-5.45814 6.742631,-11.70442 6.459268,-11.11968 6.630958,-11.36084 8.220178,-11.54638 1.810451,-0.21136 16.885325,5.3e-4 17.125511,0.24075 0.08411,0.0841 0.290663,5.35349 0.459017,11.70975 l 0.306097,11.55683 -2.727958,0.23783 c -3.204225,0.27936 -24.25003,0.30885 -27.815989,0.039 z"
       id="path459"
       inkscape:connector-curvature="0" />
  </g>
</svg>
